<svg xmlns="http://www.w3.org/2000/svg" viewBox="0 0 32 32" width="32" height="32">
  <!-- Membrane background -->
  <rect x="4" y="2" width="24" height="28" rx="2" fill="#f0f0f0" stroke="#999" stroke-width="1"/>
  <!-- Lane dividers -->
  <line x1="12" y1="2" x2="12" y2="30" stroke="#ddd" stroke-width="0.5"/>
  <line x1="20" y1="2" x2="20" y2="30" stroke="#ddd" stroke-width="0.5"/>
  <!-- Lane 1 bands -->
  <rect x="5" y="6" width="6" height="3" rx="1" fill="#1a1a2e" opacity="0.9"/>
  <rect x="5" y="15" width="6" height="2.5" rx="1" fill="#1a1a2e" opacity="0.7"/>
  <rect x="5" y="23" width="6" height="2" rx="1" fill="#1a1a2e" opacity="0.5"/>
  <!-- Lane 2 bands -->
  <rect x="13" y="7" width="6" height="3" rx="1" fill="#1a1a2e" opacity="0.95"/>
  <rect x="13" y="14" width="6" height="3" rx="1" fill="#1a1a2e" opacity="0.8"/>
  <rect x="13" y="22" width="6" height="2.5" rx="1" fill="#1a1a2e" opacity="0.4"/>
  <!-- Lane 3 bands -->
  <rect x="21" y="6.5" width="6" height="2.5" rx="1" fill="#1a1a2e" opacity="0.6"/>
  <rect x="21" y="15.5" width="6" height="2" rx="1" fill="#1a1a2e" opacity="0.85"/>
  <rect x="21" y="23.5" width="6" height="2" rx="1" fill="#1a1a2e" opacity="0.45"/>
</svg>
